{"title":"Ip.Man.3.2015.BRRip.480p.x264.AAC-VYTO [P2PDL]","uid":13859319,"size":428361949,"categoryP":"video","categoryS":"movies","magnet":"?xt=urn:btih:eaa45d0c531b68b8b907144cbebc85c5026ab175&amp;dn=Ip.Man.3.2015.BRRip.480p.x264.AAC-VYTO+%5BP2PDL%5D&amp;tr=udp%3A%2F%2Ftracker.leechers-paradise.org%3A6969&amp;tr=udp%3A%2F%2Fzer0day.ch%3A1337&amp;tr=udp%3A%2F%2Fopen.demonii.com%3A1337&amp;tr=udp%3A%2F%2Ftracker.coppersurfer.tk%3A6969&amp;tr=udp%3A%2F%2Fexodus.desync.com%3A6969","seeders":2,"leechers":5,"uploader":"VYTOP2PDL","files":7,"time":1458014272,"description":"____    ____ ____    ____ .___________.  ______   \r\n     /   /      /   / |           | /  __    \r\n    /   /      /   /  `---|  |----`|  |  |  | \r\n        /     _    _/       |  |     |  |  |  | \r\n       /        |  |         |  |     |  `--'  | \r\n    __/         |__|         |__|      ______/  \r\n                                                  \r\nPresenting Small Encodes with quality for years!\r\n                                                                                                   \r\n                                                                                                   \r\n\r\n\r\nIp.Man.3.2015.BRRip.480p.x264.AAC-VYTO\r\n\r\n\r\nGenre: Action, Biography, Drama   \nhttp://www.imdb.com/title/tt2888046/\r\n\r\n\r\nFormat                                   : MPEG-4\r\nFile size                                : 401 MiB\r\nDuration                                 : 1h 44mn\r\nOverall bit rate                         : 536 Kbps\r\n\r\nVideo\r\nFormat                                   : AVC\r\nBit rate                                 : 501 Kbps\r\nWidth                                    : 720 pixels\r\nHeight                                   : 304 pixels\r\nDisplay aspect ratio                     : 2.35:1\r\nFrame rate mode                          : Constant\r\nFrame rate                               : 24.000 fps\r\nStream size                              : 375 MiB (93%)\r\nWriting library                          : x264\r\n\r\nAudio\r\nFormat                                   : AAC\r\nBit rate mode                            : Variable\r\nBit rate                                 : 32.0 Kbps\r\nChannel(s)                               : 2 channels \r\nChannel positions                        : Front: L R \r\nSampling rate                            : 48.0 KHz\r\nStream size                              : 24.0 MiB (6%)\r\nLanguage                                 : Chinese\r\n\r\nSubtitle                                 : Yes (English)\r\n\r\nScreen Shot: (Click to view)\r\n \nhttp://ititli.com/XeA \nhttp://ititli.com/Xel \nhttp://ititli.com/Xem \nhttp://ititli.com/Xex \nhttp://ititli.com/Xe7 \nhttp://ititli.com/XeC \nhttp://ititli.com/XeF \nhttp://ititli.com/XeJ \nhttp://ititli.com/Xe5\r\n\r\n----------------------------------------------------------------------------------------------------\r\n\r\n\r\nEncoder Notes: Looking For Early Access To Anything You Can Provide WEBDL, DVDScr, DVDR, BluRay,\r\nDirect Audio, Music Releases and Seedboxes. If You Got anything to offer please contact us.\r\n\r\nSupport us by donating BC - 1FgwdzPsd1y25Gea8wP1qni35uGCtmkRCD\r\n\r\nFind us and join us!","torrent":{"xt":"urn:btih:eaa45d0c531b68b8b907144cbebc85c5026ab175","amp;dn":"Ip.Man.3.2015.BRRip.480p.x264.AAC-VYTO+%5BP2PDL%5D","amp;tr":["udp%3A%2F%2Ftracker.leechers-paradise.org%3A6969","udp%3A%2F%2Fzer0day.ch%3A1337","udp%3A%2F%2Fopen.demonii.com%3A1337","udp%3A%2F%2Ftracker.coppersurfer.tk%3A6969","udp%3A%2F%2Fexodus.desync.com%3A6969"],"infoHash":"eaa45d0c531b68b8b907144cbebc85c5026ab175","infoHashBuffer":{"type":"Buffer","data":[234,164,93,12,83,27,104,184,185,7,20,76,190,188,133,197,2,106,177,117]},"announce":[],"urlList":[]}}